<svg xmlns="http://www.w3.org/2000/svg" width="900" height="673" viewBox="0 0 238.12499 178.06459"><defs><filter color-interpolation-filters="sRGB"><feFlood flood-opacity=".498" flood-color="#000" result="flood"/><feComposite in="flood" in2="SourceGraphic" operator="in" result="composite1"/><feGaussianBlur in="composite1" stdDeviation="3" result="blur"/><feOffset dx="6" dy="6" result="offset"/><feComposite in="SourceGraphic" in2="offset" result="composite2"/></filter><filter id="a" color-interpolation-filters="sRGB"><feFlood flood-opacity=".498" flood-color="#000" result="flood"/><feComposite in="flood" in2="SourceGraphic" operator="in" result="composite1"/><feGaussianBlur in="composite1" stdDeviation="3" result="blur"/><feOffset dx="6" dy="6" result="offset"/><feComposite in="SourceGraphic" in2="offset" result="composite2"/></filter></defs><g><g transform="matrix(1.15 -.02 .02 1.15 -42.749 46.599)" filter="url(#a)"><g transform="translate(9.79 .265)"><path fill="#0f0" d="M214.48-17.78a2.6 2.6 0 0 1-2.6 2.6 2.6 2.6 0 0 1-2.62-2.6 2.6 2.6 0 0 1 2.6-2.6 2.6 2.6 0 0 1 2.62 2.6zm-65.66-3.6c-10 .6-15.23 10.96-14.5 17.43.17 6.33 3.6 11.47 8.43 13.57l-3.74.86c-.17 19.9-.26 39.87-1.92 58.82-6.2-4.1-12.8-6.76-19.8-7.96C156.8 39.54 118.4-3.63 106-12.6l1.5-5.5C89-17.65 73.9-14.8 58.95-8.8 56.9 1.46 55.2 9.36 54.46 19.03c-2.58.36-5.1.73-7.5 1.12-.78 5.52-.96 11.03-.78 16.53 2.6-.4 5.12-.78 7.55-1.13-.16 23.8 3.5 45.84 9.95 66.57L86.26 90.2c-9.8-18.3-14.18-37.35-15.15-56.86 6-.66 11.27-1.1 15.92-1.35.32-5.68.93-11.82 1.73-17.35-6 .58-11.94 1.72-17.7 2.35.16-3.97.42-8.5.8-12.5 9-3.23 16.27-4.57 27.35-5.05-5.27 18.22-6.9 35.5-6.76 49.83-2 .02-4.1 0-6.35-.07l1.72 16.54c1.85.52 3.72 1 5.6 1.45.56 6.12 1.3 12.13 2.02 18.15l15.1-2.66c-1.1-3.82-1.93-7.65-2.54-11.5 8.95 3.24 16.78 8.55 21.08 20.48l5.6-2.88c-.5 3.04-1.05 6.06-1.68 9.02l25.62-8.3c-.44-9.08-.56-18.18-.47-27.3 4.67 11.05 10.23 20.8 18.87 29.73 23.43-27.7 28.7-67.7 25.97-112.42L181.2-10.1c5.42 23.83 5.2 49.2-4.44 77.17-7.13-13.76-10.84-31.33-8.52-54.24l-8.22 2.43c.2-3.25.4-6.5.6-9.76l-2.87.66c3.16-3.25 5.12-7.93 5-12.96.17-8.6-5.23-15.2-13.93-14.57zM111.9 11.6c6.88 7.64 21.2 34.88-5.5 37.5-.16-13.16 1.76-26 5.5-37.5z" style="vector-effect:none"/><path fill-opacity=".2" d="M192.63 2.9a5.4 5.52 0 0 0-5.4 5.52 5.4 5.52 0 0 0 5.4 5.5 5.4 5.52 0 0 0 5.4-5.5 5.4 5.52 0 0 0-5.4-5.52zM95.05 18.5a4.9 5.03 0 0 0-.2.02c-.55 3.33-1 6.6-1.35 9.78a4.9 5.03 0 0 0 1.55.26 4.9 5.03 0 0 0 4.9-5.02 4.9 5.03 0 0 0-4.9-5.03zm71.9 5.83a5.4 5.52 0 0 0-5.38 5.52 5.4 5.52 0 0 0 5.4 5.5 5.4 5.52 0 0 0 .96-.08c-.3-3.48-.42-7.1-.37-10.9a5.4 5.52 0 0 0-.6-.04zm30.9 3.7a10.34 10.58 0 0 0-10.35 10.6 10.34 10.58 0 0 0 .04.86 38 38.9 0 0 0-4-.5c-1.24 9.1-3.45 18.43-6.78 28.07-3.87-7.46-6.72-16.04-8.16-26a38 38.9 0 0 0-3.66 1.53 10.34 10.58 0 0 0-8.64-4.78 10.34 10.58 0 0 0-10.34 10.6 10.34 10.58 0 0 0 3.45 7.86 38 38.9 0 0 0-2.8 5.2 38 38.9 0 0 0-8.55-6.5c-.24 4.82-.56 9.6-.97 14.3-6.2-4.07-12.8-6.74-19.8-7.94 5.32-2.94 9.23-6.26 11.98-9.84a38 38.9 0 0 0-9.33-1.24 38 38.9 0 0 0-16.86 4.06 7.1 7.28 0 0 0-6.1-3.53 7.1 7.28 0 0 0-6.15 3.65 33.73 34.53 0 0 0-4.4-2.2l1.4 13.5c1.85.5 3.72.98 5.6 1.44.56 6.12 1.3 12.13 2.02 18.15l15.1-2.66c-1.1-3.82-1.93-7.65-2.53-11.5 8.95 3.24 16.78 8.55 21.08 20.48l5.6-2.88c-.5 3.04-1.05 6.06-1.68 9.02l25.62-8.3c-.44-9.08-.56-18.18-.47-27.3 4.67 11.05 10.23 20.8 18.87 29.73 14.36-16.97 21.9-38.56 24.96-63.03a10.34 10.58 0 0 0-4.14-.88zm-136.8.53a5.3 5.42 0 0 0-5.3 5.43 5.3 5.42 0 0 0 5.3 5.4 5.3 5.42 0 0 0 5.3-5.4 5.3 5.42 0 0 0-5.3-5.44zM53.8 43.12c.58 20.93 4.1 40.5 9.88 59L86.26 90.2C79.24 77.07 75 63.56 72.8 49.77a33.73 34.53 0 0 0-9.08 1.6 10.34 10.58 0 0 0-9.9-8.25z"/><path fill="#fff" fill-opacity=".067" d="M149.63-21.4c-.27 0-.54 0-.8.03-10 .6-15.24 10.95-14.5 17.42.16 6.33 3.6 11.47 8.42 13.57l-3.74.86c-.07 9.1-.14 18.23-.34 27.26 10.45-1.24 20.15-3.64 29-6.75-.25-5.66-.08-11.7.58-18.17l-8.22 2.43c.2-3.25.4-6.5.6-9.76l-2.87.66c3.16-3.25 5.12-7.93 5-12.96.17-8.34-4.9-14.8-13.12-14.6zm53.36.93L181.2-10.1c2.48 10.92 3.78 22.17 3.54 33.84 6.97-3.5 13.2-7.3 18.6-11.02.53-10.67.35-21.78-.35-33.2zm-95.5 2.38C89-17.65 73.9-14.8 58.95-8.8 56.9 1.46 55.2 9.36 54.46 19.03c-1.24.17-2.45.35-3.65.52 10.65 5.6 20.94 9.8 30.84 12.8 1.88-.15 3.68-.27 5.38-.36.32-5.68.93-11.82 1.73-17.35-6 .58-11.94 1.72-17.7 2.35.16-3.97.42-8.5.8-12.5 9-3.23 16.27-4.57 27.35-5.05-3.65 12.62-5.55 24.8-6.33 35.84 4.74 1.05 9.38 1.84 13.93 2.38.72-9.12 2.45-17.93 5.1-26.1 4.4 4.9 11.8 17.73 9.67 27.08 4.44.05 8.77-.13 12.98-.5 2.05-20.9-19.77-44.4-28.54-50.77z"/><g><path fill="#fff" fill-opacity=".6" d="M136.48-3.72c2.55-10.38 8.56-15 17.8-14.23-3.68-.82-6.74-3.13-12.32.6-7.07 7.7-5.02 9.9-5.48 13.63zm61.94-12.86l-14.38 6.93c3.4 15.02 2.5 29.4 2.96 43.83 1.48-13.38 2.37-28.25-.9-42.6 5.23-2.08 8.34-5.37 12.32-8.16zm-57.3 28.3l-1.22 47.34 3.96-47.7zm-41.1-7.22c-2.9 11.08-4.85 22.42-5.45 33.86-.12 2.05-.2 4.1-.25 6.17 2.5-13.25 4.78-26.57 5.7-40.03zM89 61.2l-.92-10.28h2.44zm19.7-9.3c7.4-2.85 12.5-6.54 15.45-12.62-1.82 9.46-8.2 11.35-15.45 12.63zM71.57 18.7l12.37-1.6-.34 2.42zm-15.4 16.9c-.34 14.02 1.13 28.04 3.7 41.8 1.23 6.43 2.78 12.82 4.7 19.08-3.15-18.7-5.75-38.7-8.4-60.87zM101.9-16c-12.2 1.2-26.5 3.15-40.82 8.26-2.7 9.7-3.84 18.54-4.58 28.4-2.73.3-5.9.77-7.2 1.73-.82 3.7-.72 5.65-.9 8 .77-2.27 2.24-5.26 3.03-6.03 2.8-.9 5.5-.75 7.28-.98.53-9.85 1.6-19.7 4.05-29.08 12.6-4.14 15.72-5.64 27.98-6.8 7.98-1.06 9.28-2.34 11.16-3.5z"/></g><circle cx="212.078" cy="-17.717" r="3.349" fill="none" stroke="#000" stroke-width="2.646"/><g style="line-height:1.25" font-size="99.251" font-family="sans-serif" letter-spacing="0" word-spacing="0"><path d="M212-18q.24 0 .34-.08.1-.1.1-.28 0-.2-.1-.28-.1-.08-.32-.08h-.3l-.02.7zm-.3.5l-.02 1.05h-.73l.05-2.82 1.1.02q.56 0 .82.2.25.2.25.6 0 .27-.15.45-.13.18-.4.26.14.03.26.15.1.14.23.38l.4.8h-.78l-.33-.7q-.1-.23-.22-.3-.1-.08-.28-.1z" style="-inkscape-font-specification:'sans-serif Bold'" font-weight="bold"/></g><circle cx="190.453" cy="-23.15" r=".779" fill="none" style="vector-effect:none"/></g><path fill="none" stroke="#000" stroke-width="4" d="M120.62 10.27c6.9 7.64 21.2 34.9-5.47 37.5-.18-13.15 1.74-25.98 5.47-37.5zm36.93-32.96c-10 .6-15.23 10.95-14.5 17.43.17 6.33 3.6 11.47 8.43 13.56l-3.74.86c-.18 19.9-.27 39.86-1.93 58.8-6.2-4.08-12.8-6.75-19.8-7.94 39.53-21.8 1.13-64.97-11.26-73.95l1.48-5.48c-18.48.42-33.57 3.3-48.53 9.26C65.6.13 63.93 8.04 63.17 17.7c-2.57.37-5.07.74-7.5 1.13-.77 5.52-.95 11.03-.77 16.52 2.62-.4 5.13-.77 7.56-1.12-.16 23.8 3.5 45.84 9.95 66.57L95 88.88C85.2 70.58 80.8 51.53 79.83 32c5.98-.64 11.26-1.08 15.9-1.33.34-5.68.94-11.8 1.74-17.34-6 .57-11.94 1.72-17.7 2.35.16-3.97.42-8.5.8-12.5 9-3.23 16.27-4.57 27.35-5.05-5.26 18.2-6.9 35.5-6.76 49.83-2 .02-4.1 0-6.34-.07l1.72 16.52c1.85.52 3.72 1 5.6 1.44.56 6.14 1.3 12.15 2.02 18.17l15.1-2.66c-1.1-3.8-1.92-7.64-2.53-11.48 8.94 3.22 16.77 8.53 21.07 20.46l5.62-2.9c-.5 3.06-1.06 6.07-1.68 9.04l25.6-8.32c-.43-9.06-.55-18.16-.46-27.28 4.68 11.04 10.23 20.8 18.87 29.73 23.43-27.7 28.7-67.7 25.97-112.43l-21.8 10.37c5.44 23.84 5.23 49.22-4.43 77.18-7.14-13.76-10.85-31.33-8.53-54.24l-8.22 2.43c.2-3.25.4-6.5.6-9.75l-2.87.66c3.16-3.25 5.12-7.94 5-12.96.18-8.6-5.23-15.2-13.93-14.57z" stroke-linejoin="round"/></g></g></svg>